<svg width="235" height="194" viewBox="0 0 235 194" fill="none" xmlns="http://www.w3.org/2000/svg">
<path d="M13.224 18V5.4H15.96L19.974 13.392L23.934 5.4H26.67V18H24.366V9.306L20.856 16.2H19.038L15.528 9.306V18H13.224ZM33.3446 18.216C32.4806 18.216 31.7006 18.018 31.0046 17.622C30.3206 17.226 29.7746 16.68 29.3666 15.984C28.9706 15.276 28.7726 14.46 28.7726 13.536C28.7726 12.612 28.9766 11.802 29.3846 11.106C29.7926 10.398 30.3386 9.846 31.0226 9.45C31.7186 9.054 32.4986 8.856 33.3626 8.856C34.2146 8.856 34.9826 9.054 35.6666 9.45C36.3626 9.846 36.9086 10.398 37.3046 11.106C37.7126 11.802 37.9166 12.612 37.9166 13.536C37.9166 14.46 37.7126 15.276 37.3046 15.984C36.9086 16.68 36.3626 17.226 35.6666 17.622C34.9706 18.018 34.1966 18.216 33.3446 18.216ZM33.3446 16.218C33.9446 16.218 34.4666 15.996 34.9106 15.552C35.3546 15.096 35.5766 14.424 35.5766 13.536C35.5766 12.648 35.3546 11.982 34.9106 11.538C34.4666 11.082 33.9506 10.854 33.3626 10.854C32.7506 10.854 32.2226 11.082 31.7786 11.538C31.3466 11.982 31.1306 12.648 31.1306 13.536C31.1306 14.424 31.3466 15.096 31.7786 15.552C32.2226 15.996 32.7446 16.218 33.3446 16.218ZM39.9766 18V9.072H42.0106L42.1906 10.584C42.4666 10.056 42.8626 9.636 43.3786 9.324C43.9066 9.012 44.5246 8.856 45.2326 8.856C46.3366 8.856 47.1946 9.204 47.8066 9.9C48.4186 10.596 48.7246 11.616 48.7246 12.96V18H46.4206V13.176C46.4206 12.408 46.2646 11.82 45.9526 11.412C45.6406 11.004 45.1546 10.8 44.4946 10.8C43.8466 10.8 43.3126 11.028 42.8926 11.484C42.4846 11.94 42.2806 12.576 42.2806 13.392V18H39.9766ZM55.2658 18.216C54.3658 18.216 53.5678 18.024 52.8718 17.64C52.1758 17.256 51.6298 16.716 51.2338 16.02C50.8378 15.324 50.6398 14.52 50.6398 13.608C50.6398 12.684 50.8318 11.862 51.2158 11.142C51.6118 10.422 52.1518 9.864 52.8358 9.468C53.5318 9.06 54.3478 8.856 55.2838 8.856C56.1598 8.856 56.9338 9.048 57.6058 9.432C58.2778 9.816 58.7998 10.344 59.1718 11.016C59.5558 11.676 59.7478 12.414 59.7478 13.23C59.7478 13.362 59.7418 13.5 59.7298 13.644C59.7298 13.788 59.7238 13.938 59.7118 14.094H52.9258C52.9738 14.79 53.2138 15.336 53.6458 15.732C54.0898 16.128 54.6238 16.326 55.2478 16.326C55.7158 16.326 56.1058 16.224 56.4178 16.02C56.7418 15.804 56.9818 15.528 57.1378 15.192H59.4778C59.3098 15.756 59.0278 16.272 58.6318 16.74C58.2478 17.196 57.7678 17.556 57.1918 17.82C56.6278 18.084 55.9858 18.216 55.2658 18.216ZM55.2838 10.728C54.7198 10.728 54.2218 10.89 53.7898 11.214C53.3578 11.526 53.0818 12.006 52.9618 12.654H57.4078C57.3718 12.066 57.1558 11.598 56.7598 11.25C56.3638 10.902 55.8718 10.728 55.2838 10.728ZM65.7896 18.216C64.9496 18.216 64.1996 18.012 63.5396 17.604C62.8796 17.196 62.3576 16.638 61.9736 15.93C61.5896 15.222 61.3976 14.418 61.3976 13.518C61.3976 12.618 61.5896 11.82 61.9736 11.124C62.3576 10.416 62.8796 9.864 63.5396 9.468C64.1996 9.06 64.9496 8.856 65.7896 8.856C66.4616 8.856 67.0496 8.982 67.5536 9.234C68.0576 9.486 68.4656 9.84 68.7776 10.296V5.04H71.0816V18H69.0296L68.7776 16.722C68.4896 17.118 68.1056 17.466 67.6256 17.766C67.1576 18.066 66.5456 18.216 65.7896 18.216ZM66.2756 16.2C67.0196 16.2 67.6256 15.954 68.0936 15.462C68.5736 14.958 68.8136 14.316 68.8136 13.536C68.8136 12.756 68.5736 12.12 68.0936 11.628C67.6256 11.124 67.0196 10.872 66.2756 10.872C65.5436 10.872 64.9376 11.118 64.4576 11.61C63.9776 12.102 63.7376 12.738 63.7376 13.518C63.7376 14.298 63.9776 14.94 64.4576 15.444C64.9376 15.948 65.5436 16.2 66.2756 16.2ZM76.5058 18.216C75.7378 18.216 75.1078 18.096 74.6158 17.856C74.1238 17.604 73.7578 17.274 73.5178 16.866C73.2778 16.458 73.1578 16.008 73.1578 15.516C73.1578 14.688 73.4818 14.016 74.1298 13.5C74.7778 12.984 75.7498 12.726 77.0458 12.726H79.3138V12.51C79.3138 11.898 79.1398 11.448 78.7918 11.16C78.4438 10.872 78.0118 10.728 77.4958 10.728C77.0278 10.728 76.6198 10.842 76.2718 11.07C75.9238 11.286 75.7078 11.61 75.6238 12.042H73.3738C73.4338 11.394 73.6498 10.83 74.0218 10.35C74.4058 9.87 74.8978 9.504 75.4978 9.252C76.0978 8.988 76.7698 8.856 77.5138 8.856C78.7858 8.856 79.7878 9.174 80.5198 9.81C81.2518 10.446 81.6178 11.346 81.6178 12.51V18H79.6558L79.4398 16.56C79.1758 17.04 78.8038 17.436 78.3238 17.748C77.8558 18.06 77.2498 18.216 76.5058 18.216ZM77.0278 16.416C77.6878 16.416 78.1978 16.2 78.5578 15.768C78.9298 15.336 79.1638 14.802 79.2598 14.166H77.2978C76.6858 14.166 76.2478 14.28 75.9838 14.508C75.7198 14.724 75.5878 14.994 75.5878 15.318C75.5878 15.666 75.7198 15.936 75.9838 16.128C76.2478 16.32 76.5958 16.416 77.0278 16.416ZM87.5065 18.216C86.7145 18.216 86.0185 18.09 85.4185 17.838C84.8185 17.574 84.3385 17.214 83.9785 16.758C83.6185 16.302 83.4025 15.774 83.3305 15.174H85.6525C85.7245 15.522 85.9165 15.822 86.2285 16.074C86.5525 16.314 86.9665 16.434 87.4705 16.434C87.9745 16.434 88.3405 16.332 88.5685 16.128C88.8085 15.924 88.9285 15.69 88.9285 15.426C88.9285 15.042 88.7605 14.784 88.4245 14.652C88.0885 14.508 87.6205 14.37 87.0205 14.238C86.6365 14.154 86.2465 14.052 85.8505 13.932C85.4545 13.812 85.0885 13.662 84.7525 13.482C84.4285 13.29 84.1645 13.05 83.9605 12.762C83.7565 12.462 83.6545 12.096 83.6545 11.664C83.6545 10.872 83.9665 10.206 84.5905 9.666C85.2265 9.126 86.1145 8.856 87.2545 8.856C88.3105 8.856 89.1505 9.102 89.7745 9.594C90.4105 10.086 90.7885 10.764 90.9085 11.628H88.7305C88.5985 10.968 88.1005 10.638 87.2365 10.638C86.8045 10.638 86.4685 10.722 86.2285 10.89C86.0005 11.058 85.8865 11.268 85.8865 11.52C85.8865 11.784 86.0605 11.994 86.4085 12.15C86.7565 12.306 87.2185 12.45 87.7945 12.582C88.4185 12.726 88.9885 12.888 89.5045 13.068C90.0325 13.236 90.4525 13.494 90.7645 13.842C91.0765 14.178 91.2325 14.664 91.2325 15.3C91.2445 15.852 91.1005 16.35 90.8005 16.794C90.5005 17.238 90.0685 17.586 89.5045 17.838C88.9405 18.09 88.2745 18.216 87.5065 18.216Z" fill="#FF9536"/>
<path d="M0 43C0 38.5817 3.58172 35 8 35H101V74H0V43Z" fill="white"/>
<path d="M13.2784 60H17.7386C20.4432 60 21.6648 58.6534 21.6648 56.8693C21.6648 55.0682 20.4034 54.0511 19.25 53.9886V53.875C20.3182 53.6023 21.2102 52.875 21.2102 51.4205C21.2102 49.6989 20.017 48.3636 17.5398 48.3636H13.2784V60ZM15.0341 58.4943V54.767H17.6307C19.0398 54.767 19.9205 55.6761 19.9205 56.7841C19.9205 57.7614 19.2557 58.4943 17.5682 58.4943H15.0341ZM15.0341 53.3977V49.858H17.4318C18.8239 49.858 19.4886 50.5909 19.4886 51.5568C19.4886 52.6818 18.5682 53.3977 17.3864 53.3977H15.0341ZM23.2908 60H24.9897V51.2727H23.2908V60ZM24.1488 49.9261C24.734 49.9261 25.2226 49.4716 25.2226 48.9148C25.2226 48.358 24.734 47.8977 24.1488 47.8977C23.5578 47.8977 23.0749 48.358 23.0749 48.9148C23.0749 49.4716 23.5578 49.9261 24.1488 49.9261ZM31.029 51.2727H29.2393V49.1818H27.5404V51.2727H26.262V52.6364H27.5404V57.7898C27.5347 59.375 28.7449 60.142 30.0859 60.1136C30.6256 60.108 30.9893 60.0057 31.1881 59.9318L30.8813 58.5284C30.7677 58.5511 30.5574 58.6023 30.2847 58.6023C29.7336 58.6023 29.2393 58.4205 29.2393 57.4375V52.6364H31.029V51.2727ZM36.1707 60.1761C38.2332 60.1761 39.5684 58.9375 39.7559 57.2386H38.1025C37.8866 58.1818 37.1536 58.7386 36.182 58.7386C34.7445 58.7386 33.8184 57.5398 33.8184 55.6364C33.8184 53.767 34.7616 52.5909 36.182 52.5909C37.2616 52.5909 37.9207 53.2727 38.1025 54.0909H39.7559C39.5741 52.3295 38.1366 51.1591 36.1536 51.1591C33.6934 51.1591 32.1025 53.0114 32.1025 55.6761C32.1025 58.3068 33.6366 60.1761 36.1707 60.1761ZM44.9288 60.1761C47.389 60.1761 48.997 58.375 48.997 55.6761C48.997 52.9602 47.389 51.1591 44.9288 51.1591C42.4686 51.1591 40.8606 52.9602 40.8606 55.6761C40.8606 58.375 42.4686 60.1761 44.9288 60.1761ZM44.9345 58.75C43.3265 58.75 42.5765 57.3466 42.5765 55.6705C42.5765 54 43.3265 52.5795 44.9345 52.5795C46.5311 52.5795 47.2811 54 47.2811 55.6705C47.2811 57.3466 46.5311 58.75 44.9345 58.75ZM50.5733 60H52.2722V51.2727H50.5733V60ZM51.4313 49.9261C52.0165 49.9261 52.5051 49.4716 52.5051 48.9148C52.5051 48.358 52.0165 47.8977 51.4313 47.8977C50.8403 47.8977 50.3574 48.358 50.3574 48.9148C50.3574 49.4716 50.8403 49.9261 51.4313 49.9261ZM55.9365 54.8182C55.9365 53.4261 56.7888 52.6307 57.9706 52.6307C59.124 52.6307 59.8229 53.3864 59.8229 54.6534V60H61.5218V54.4489C61.5218 52.2898 60.3343 51.1591 58.5502 51.1591C57.2377 51.1591 56.3797 51.767 55.9763 52.6932H55.8684V51.2727H54.2377V60H55.9365V54.8182Z" fill="#B5B0AC"/>
<rect width="101" height="39" transform="translate(0 75)" fill="white"/>
<path d="M13.2784 100H20.642V98.4886H15.0341V94.9261H20.1932V93.4205H15.0341V89.875H20.5739V88.3636H13.2784V100ZM26.5365 91.2727H24.7468V89.1818H23.0479V91.2727H21.7695V92.6364H23.0479V97.7898C23.0422 99.375 24.2524 100.142 25.5934 100.114C26.1331 100.108 26.4968 100.006 26.6956 99.9318L26.3888 98.5284C26.2752 98.5511 26.0649 98.6023 25.7922 98.6023C25.2411 98.6023 24.7468 98.4205 24.7468 97.4375V92.6364H26.5365V91.2727ZM29.9822 94.8182C29.9822 93.4261 30.8628 92.6307 32.0731 92.6307C33.2435 92.6307 33.9424 93.375 33.9424 94.6534V100H35.6412V94.4489C35.6412 92.2727 34.4481 91.1591 32.6526 91.1591C31.2947 91.1591 30.4765 91.75 30.0674 92.6932H29.9594V88.3636H28.2833V100H29.9822V94.8182ZM41.3497 100.176C43.2531 100.176 44.5997 99.2386 44.986 97.8182L43.3781 97.5284C43.0713 98.3523 42.3326 98.7727 41.3667 98.7727C39.9122 98.7727 38.9349 97.8295 38.8894 96.1477H45.094V95.5455C45.094 92.392 43.2076 91.1591 41.2303 91.1591C38.7985 91.1591 37.1963 93.0114 37.1963 95.6932C37.1963 98.4034 38.7758 100.176 41.3497 100.176ZM38.8951 94.875C38.9633 93.6364 39.861 92.5625 41.2417 92.5625C42.5599 92.5625 43.4235 93.5398 43.4292 94.875H38.8951ZM46.6589 100H48.3578V94.6705C48.3578 93.5284 49.2385 92.7045 50.443 92.7045C50.7953 92.7045 51.193 92.767 51.3294 92.8068V91.1818C51.1589 91.1591 50.8237 91.142 50.6078 91.142C49.5851 91.142 48.7101 91.7216 48.3919 92.6591H48.301V91.2727H46.6589V100ZM55.9284 100.176C57.8318 100.176 59.1784 99.2386 59.5648 97.8182L57.9568 97.5284C57.65 98.3523 56.9114 98.7727 55.9455 98.7727C54.4909 98.7727 53.5136 97.8295 53.4682 96.1477H59.6727V95.5455C59.6727 92.392 57.7864 91.1591 55.8091 91.1591C53.3773 91.1591 51.775 93.0114 51.775 95.6932C51.775 98.4034 53.3545 100.176 55.9284 100.176ZM53.4739 94.875C53.542 93.6364 54.4398 92.5625 55.8205 92.5625C57.1386 92.5625 58.0023 93.5398 58.008 94.875H53.4739ZM66.7661 96.3807C66.7718 97.8636 65.6695 98.5682 64.7149 98.5682C63.6638 98.5682 62.9365 97.8068 62.9365 96.6193V91.2727H61.2377V96.8239C61.2377 98.9886 62.4252 100.114 64.1013 100.114C65.4138 100.114 66.3059 99.4205 66.7093 98.4886H66.8002V100H68.4706V91.2727H66.7661V96.3807ZM70.4333 100H72.1322V94.6193C72.1322 93.4432 72.956 92.625 73.9219 92.625C74.8651 92.625 75.5185 93.25 75.5185 94.1989V100H77.2117V94.4375C77.2117 93.3864 77.8537 92.625 78.9617 92.625C79.8594 92.625 80.5981 93.125 80.5981 94.3068V100H82.2969V94.1477C82.2969 92.1534 81.1833 91.1591 79.6037 91.1591C78.3481 91.1591 77.4049 91.7614 76.9844 92.6932H76.8935C76.5128 91.7386 75.7117 91.1591 74.5469 91.1591C73.3935 91.1591 72.5356 91.733 72.1719 92.6932H72.064V91.2727H70.4333V100Z" fill="#B5B0AC"/>
<rect width="101" height="39" transform="translate(0 115)" fill="white"/>
<path d="M13.2784 140H15.0341V135.597H17.4205C17.4602 135.597 17.4943 135.597 17.5341 135.597L19.8977 140H21.8977L19.3182 135.29C20.7443 134.761 21.4545 133.574 21.4545 132.011C21.4545 129.869 20.125 128.364 17.4261 128.364H13.2784V140ZM15.0341 134.085V129.869H17.2386C18.9716 129.869 19.6875 130.693 19.6875 132.011C19.6875 133.324 18.9716 134.085 17.2614 134.085H15.0341ZM23.1345 140H24.8334V131.273H23.1345V140ZM23.9925 129.926C24.5777 129.926 25.0664 129.472 25.0664 128.915C25.0664 128.358 24.5777 127.898 23.9925 127.898C23.4016 127.898 22.9186 128.358 22.9186 128.915C22.9186 129.472 23.4016 129.926 23.9925 129.926ZM26.7989 143.273H28.4978V138.642H28.6001C28.9069 139.199 29.5319 140.17 31.1228 140.17C33.2364 140.17 34.7705 138.477 34.7705 135.653C34.7705 132.824 33.2137 131.159 31.1057 131.159C29.4864 131.159 28.9012 132.148 28.6001 132.688H28.458V131.273H26.7989V143.273ZM28.4637 135.636C28.4637 133.812 29.2591 132.602 30.7421 132.602C32.2819 132.602 33.0546 133.903 33.0546 135.636C33.0546 137.386 32.2591 138.722 30.7421 138.722C29.2819 138.722 28.4637 137.472 28.4637 135.636ZM36.3539 143.273H38.0528V138.642H38.1551C38.4619 139.199 39.0869 140.17 40.6778 140.17C42.7914 140.17 44.3255 138.477 44.3255 135.653C44.3255 132.824 42.7687 131.159 40.6607 131.159C39.0414 131.159 38.4562 132.148 38.1551 132.688H38.013V131.273H36.3539V143.273ZM38.0187 135.636C38.0187 133.812 38.8141 132.602 40.2971 132.602C41.8369 132.602 42.6096 133.903 42.6096 135.636C42.6096 137.386 41.8141 138.722 40.2971 138.722C38.8369 138.722 38.0187 137.472 38.0187 135.636ZM47.6078 128.364H45.9089V140H47.6078V128.364ZM53.3347 140.176C55.2381 140.176 56.5847 139.239 56.971 137.818L55.3631 137.528C55.0563 138.352 54.3176 138.773 53.3517 138.773C51.8972 138.773 50.9199 137.83 50.8744 136.148H57.079V135.545C57.079 132.392 55.1926 131.159 53.2153 131.159C50.7835 131.159 49.1813 133.011 49.1813 135.693C49.1813 138.403 50.7608 140.176 53.3347 140.176ZM50.8801 134.875C50.9483 133.636 51.846 132.562 53.2267 132.562C54.5449 132.562 55.4085 133.54 55.4142 134.875H50.8801Z" fill="#B5B0AC"/>
<path d="M0 155H101V194H8C3.58172 194 0 190.418 0 186V155Z" fill="white"/>
<path d="M19.625 171.42H21.3182C21.267 169.557 19.6193 168.205 17.2557 168.205C14.9205 168.205 13.1307 169.54 13.1307 171.545C13.1307 173.165 14.2898 174.114 16.1591 174.619L17.5341 174.994C18.7784 175.324 19.7386 175.733 19.7386 176.767C19.7386 177.903 18.6534 178.653 17.1591 178.653C15.8068 178.653 14.6818 178.051 14.5795 176.784H12.8182C12.9318 178.892 14.5625 180.193 17.1705 180.193C19.9034 180.193 21.4773 178.756 21.4773 176.784C21.4773 174.688 19.608 173.875 18.1307 173.511L16.9943 173.216C16.0852 172.983 14.875 172.557 14.8807 171.443C14.8807 170.455 15.7841 169.722 17.2159 169.722C18.5511 169.722 19.5 170.347 19.625 171.42ZM27.1928 171.273H25.403V169.182H23.7041V171.273H22.4257V172.636H23.7041V177.79C23.6985 179.375 24.9087 180.142 26.2496 180.114C26.7894 180.108 27.153 180.006 27.3519 179.932L27.0451 178.528C26.9314 178.551 26.7212 178.602 26.4485 178.602C25.8973 178.602 25.403 178.42 25.403 177.438V172.636H27.1928V171.273ZM32.4197 180.176C34.3231 180.176 35.6697 179.239 36.056 177.818L34.4481 177.528C34.1412 178.352 33.4026 178.773 32.4367 178.773C30.9822 178.773 30.0049 177.83 29.9594 176.148H36.164V175.545C36.164 172.392 34.2776 171.159 32.3003 171.159C29.8685 171.159 28.2662 173.011 28.2662 175.693C28.2662 178.403 29.8458 180.176 32.4197 180.176ZM29.9651 174.875C30.0333 173.636 30.931 172.562 32.3117 172.562C33.6299 172.562 34.4935 173.54 34.4992 174.875H29.9651ZM39.4278 168.364H37.7289V180H39.4278V168.364ZM43.0922 168.364H41.3933V180H43.0922V168.364ZM47.5974 180.193C49.0406 180.193 49.8531 179.46 50.177 178.807H50.2452V180H51.9043V174.205C51.9043 171.665 49.9043 171.159 48.5179 171.159C46.9384 171.159 45.4838 171.795 44.9156 173.386L46.5122 173.75C46.7622 173.131 47.3986 172.534 48.5406 172.534C49.6372 172.534 50.1997 173.108 50.1997 174.097V174.136C50.1997 174.756 49.5634 174.744 47.9952 174.926C46.3418 175.119 44.6486 175.551 44.6486 177.534C44.6486 179.25 45.9384 180.193 47.5974 180.193ZM47.9668 178.83C47.0065 178.83 46.3134 178.398 46.3134 177.557C46.3134 176.648 47.1202 176.324 48.1031 176.193C48.6543 176.119 49.9611 175.972 50.2054 175.727V176.852C50.2054 177.886 49.3815 178.83 47.9668 178.83ZM53.847 180H55.5459V174.67C55.5459 173.528 56.4266 172.705 57.6311 172.705C57.9834 172.705 58.3811 172.767 58.5175 172.807V171.182C58.347 171.159 58.0118 171.142 57.7959 171.142C56.7732 171.142 55.8982 171.722 55.58 172.659H55.4891V171.273H53.847V180Z" fill="#B5B0AC"/>
<path d="M102 35H189C193.418 35 197 38.5817 197 43V74H102V35Z" fill="white"/>
<path d="M123.255 61.2727H124.07V60.1641C126.158 60.0199 127.332 58.7869 127.332 57.2358C127.332 55.3267 125.522 54.7102 124.468 54.4318L124.07 54.3224V50.7876C125.124 50.892 125.89 51.4588 125.999 52.3636H127.192C127.143 50.9119 125.87 49.8082 124.07 49.6889V48.5455H123.255V49.7038C121.55 49.8778 120.272 50.9616 120.272 52.5227C120.272 53.8949 121.266 54.7102 122.857 55.1676L123.255 55.282V59.0455C122.211 58.9361 121.356 58.3991 121.266 57.375H119.994C120.108 58.9411 121.301 60.0348 123.255 60.1641V61.2727ZM124.07 59.0455V55.5156L124.11 55.5256C125.184 55.8239 126.138 56.2017 126.138 57.2159C126.138 58.2152 125.273 58.9112 124.07 59.0455ZM123.255 54.1037C122.499 53.8899 121.465 53.4723 121.465 52.4631C121.465 51.603 122.161 50.9467 123.255 50.8026V54.1037ZM136.137 49.8182H134.904L132.358 51.5085V52.7614L134.844 51.1108H134.904V60H136.137V49.8182ZM139.059 60.0795C139.551 60.0795 139.953 59.6768 139.953 59.1847C139.953 58.6925 139.551 58.2898 139.059 58.2898C138.566 58.2898 138.164 58.6925 138.164 59.1847C138.164 59.6768 138.566 60.0795 139.059 60.0795ZM144.905 49.6591C142.837 49.6392 141.504 51.1903 141.504 53.0795C141.504 55.0483 142.956 56.4602 144.706 56.4602C145.76 56.4602 146.655 55.9432 147.212 55.108H147.291C147.291 57.6136 146.317 59.0455 144.746 59.0455C143.672 59.0455 143.016 58.3693 142.797 57.4347H141.584C141.822 59.0455 143.035 60.1392 144.746 60.1392C147.033 60.1392 148.445 58.1108 148.445 54.4915C148.445 50.733 146.575 49.679 144.905 49.6591ZM144.905 50.7528C146.177 50.7528 147.112 51.8466 147.112 53.0597C147.112 54.2727 146.118 55.3665 144.865 55.3665C143.612 55.3665 142.697 54.3523 142.697 53.0795C142.697 51.7869 143.652 50.7528 144.905 50.7528ZM153.5 60.1392C155.559 60.1641 156.901 58.6129 156.901 56.7188C156.901 54.75 155.444 53.3381 153.699 53.3381C152.65 53.3381 151.75 53.8501 151.193 54.6903H151.114C151.119 52.1896 152.083 50.7528 153.659 50.7528C154.733 50.7528 155.38 51.429 155.608 52.3636H156.821C156.573 50.7628 155.37 49.6591 153.659 49.6591C151.367 49.6591 149.961 51.6875 149.961 55.3068C149.961 59.0703 151.83 60.1193 153.5 60.1392ZM153.5 59.0455C152.223 59.0455 151.288 57.9567 151.293 56.7386C151.298 55.5206 152.277 54.4318 153.54 54.4318C154.788 54.4318 155.708 55.456 155.708 56.7188C155.708 58.0114 154.748 59.0455 153.5 59.0455Z" fill="#757575"/>
<path d="M184.5 57.5L179.75 52.75L177.25 55.25L173.5 51.5" stroke="#F5450D" stroke-linecap="round" stroke-linejoin="round"/>
<path d="M181.5 57.5H184.5V54.5" stroke="#F5450D" stroke-linecap="round" stroke-linejoin="round"/>
<rect width="95" height="39" transform="translate(102 75)" fill="white"/>
<path d="M122.64 101.273H123.455V100.164C125.543 100.02 126.716 98.7869 126.716 97.2358C126.716 95.3267 124.907 94.7102 123.853 94.4318L123.455 94.3224V90.7876C124.509 90.892 125.275 91.4588 125.384 92.3636H126.577C126.527 90.9119 125.255 89.8082 123.455 89.6889V88.5455H122.64V89.7038C120.934 89.8778 119.657 90.9616 119.657 92.5227C119.657 93.8949 120.651 94.7102 122.242 95.1676L122.64 95.282V99.0455C121.596 98.9361 120.74 98.3991 120.651 97.375H119.378C119.493 98.9411 120.686 100.035 122.64 100.164V101.273ZM123.455 99.0455V95.5156L123.495 95.5256C124.569 95.8239 125.523 96.2017 125.523 97.2159C125.523 98.2152 124.658 98.9112 123.455 99.0455ZM122.64 94.1037C121.884 93.8899 120.85 93.4723 120.85 92.4631C120.85 91.603 121.546 90.9467 122.64 90.8026V94.1037ZM135.263 100.139C137.51 100.139 138.803 98.2351 138.803 94.9091C138.803 91.608 137.49 89.679 135.263 89.679C133.036 89.679 131.723 91.608 131.723 94.9091C131.723 98.2351 133.016 100.139 135.263 100.139ZM135.263 99.0455C133.782 99.0455 132.916 97.5589 132.916 94.9091C132.916 92.2642 133.791 90.7528 135.263 90.7528C136.735 90.7528 137.61 92.2642 137.61 94.9091C137.61 97.5589 136.745 99.0455 135.263 99.0455ZM140.932 100.08C141.424 100.08 141.826 99.6768 141.826 99.1847C141.826 98.6925 141.424 98.2898 140.932 98.2898C140.439 98.2898 140.037 98.6925 140.037 99.1847C140.037 99.6768 140.439 100.08 140.932 100.08ZM146.598 100.139C148.845 100.139 150.137 98.2351 150.137 94.9091C150.137 91.608 148.825 89.679 146.598 89.679C144.37 89.679 143.058 91.608 143.058 94.9091C143.058 98.2351 144.35 100.139 146.598 100.139ZM146.598 99.0455C145.116 99.0455 144.251 97.5589 144.251 94.9091C144.251 92.2642 145.126 90.7528 146.598 90.7528C148.069 90.7528 148.944 92.2642 148.944 94.9091C148.944 97.5589 148.079 99.0455 146.598 99.0455ZM151.791 100H153.084L157.618 90.9716V89.8182H151.095V90.9119H156.345V90.9915L151.791 100Z" fill="#757575"/>
<path d="M184.5 94L179.75 98.75L177.25 96.25L173.5 100" stroke="#07D635" stroke-linecap="round" stroke-linejoin="round"/>
<path d="M181.5 94H184.5V97" stroke="#07D635" stroke-linecap="round" stroke-linejoin="round"/>
<rect width="95" height="39" transform="translate(102 115)" fill="white"/>
<path d="M123.754 141.273H124.569V140.164C126.657 140.02 127.831 138.787 127.831 137.236C127.831 135.327 126.021 134.71 124.967 134.432L124.569 134.322V130.788C125.623 130.892 126.389 131.459 126.498 132.364H127.691C127.642 130.912 126.369 129.808 124.569 129.689V128.545H123.754V129.704C122.049 129.878 120.771 130.962 120.771 132.523C120.771 133.895 121.765 134.71 123.356 135.168L123.754 135.282V139.045C122.71 138.936 121.855 138.399 121.765 137.375H120.493C120.607 138.941 121.8 140.035 123.754 140.164V141.273ZM124.569 139.045V135.516L124.609 135.526C125.683 135.824 126.637 136.202 126.637 137.216C126.637 138.215 125.772 138.911 124.569 139.045ZM123.754 134.104C122.998 133.89 121.964 133.472 121.964 132.463C121.964 131.603 122.66 130.947 123.754 130.803V134.104ZM133.056 140H139.48V138.906H134.747V138.827L137.034 136.381C138.784 134.506 139.301 133.631 139.301 132.503C139.301 130.932 138.028 129.679 136.238 129.679C134.453 129.679 133.096 130.892 133.096 132.682H134.269C134.269 131.523 135.02 130.753 136.198 130.753C137.302 130.753 138.147 131.429 138.147 132.503C138.147 133.442 137.595 134.138 136.417 135.426L133.056 139.105V140ZM142.128 140.08C142.62 140.08 143.023 139.677 143.023 139.185C143.023 138.692 142.62 138.29 142.128 138.29C141.636 138.29 141.233 138.692 141.233 139.185C141.233 139.677 141.636 140.08 142.128 140.08ZM147.191 129.818H145.958L143.413 131.509V132.761L145.898 131.111H145.958V140H147.191V129.818ZM153.021 140.139C154.96 140.139 156.382 138.707 156.382 136.759C156.382 134.785 155.01 133.338 153.14 133.338C152.454 133.338 151.788 133.582 151.371 133.915H151.311L151.669 130.912H155.925V129.818H150.635L150.018 134.83L151.172 134.969C151.594 134.665 152.315 134.447 152.942 134.452C154.239 134.462 155.189 135.446 155.189 136.778C155.189 138.086 154.274 139.045 153.021 139.045C151.977 139.045 151.147 138.374 151.052 137.455H149.859C149.934 139.006 151.271 140.139 153.021 140.139Z" fill="#757575"/>
<path d="M184.5 137.5L179.75 132.75L177.25 135.25L173.5 131.5" stroke="#F5450D" stroke-linecap="round" stroke-linejoin="round"/>
<path d="M181.5 137.5H184.5V134.5" stroke="#F5450D" stroke-linecap="round" stroke-linejoin="round"/>
<path d="M102 155H197V186C197 190.418 193.418 194 189 194H102V155Z" fill="white"/>
<path d="M121.956 181.273H122.771V180.164C124.859 180.02 126.033 178.787 126.033 177.236C126.033 175.327 124.223 174.71 123.169 174.432L122.771 174.322V170.788C123.825 170.892 124.591 171.459 124.7 172.364H125.894C125.844 170.912 124.571 169.808 122.771 169.689V168.545H121.956V169.704C120.251 169.878 118.973 170.962 118.973 172.523C118.973 173.895 119.967 174.71 121.558 175.168L121.956 175.282V179.045C120.912 178.936 120.057 178.399 119.967 177.375H118.695C118.809 178.941 120.002 180.035 121.956 180.164V181.273ZM122.771 179.045V175.516L122.811 175.526C123.885 175.824 124.84 176.202 124.84 177.216C124.84 178.215 123.975 178.911 122.771 179.045ZM121.956 174.104C121.2 173.89 120.166 173.472 120.166 172.463C120.166 171.603 120.862 170.947 121.956 170.803V174.104ZM131.02 177.912H135.812V180H136.986V177.912H138.378V176.818H136.986V169.818H135.494L131.02 176.898V177.912ZM135.812 176.818H132.352V176.739L135.733 171.389H135.812V176.818ZM140.357 180.08C140.85 180.08 141.252 179.677 141.252 179.185C141.252 178.692 140.85 178.29 140.357 178.29C139.865 178.29 139.462 178.692 139.462 179.185C139.462 179.677 139.865 180.08 140.357 180.08ZM146.204 169.659C144.135 169.639 142.803 171.19 142.803 173.08C142.803 175.048 144.255 176.46 146.005 176.46C147.059 176.46 147.954 175.943 148.51 175.108H148.59C148.59 177.614 147.616 179.045 146.044 179.045C144.971 179.045 144.314 178.369 144.096 177.435H142.883C143.121 179.045 144.334 180.139 146.044 180.139C148.331 180.139 149.743 178.111 149.743 174.491C149.743 170.733 147.874 169.679 146.204 169.659ZM146.204 170.753C147.476 170.753 148.411 171.847 148.411 173.06C148.411 174.273 147.417 175.366 146.164 175.366C144.911 175.366 143.996 174.352 143.996 173.08C143.996 171.787 144.951 170.753 146.204 170.753ZM154.799 180.139C156.857 180.164 158.2 178.613 158.2 176.719C158.2 174.75 156.743 173.338 154.998 173.338C153.949 173.338 153.049 173.85 152.492 174.69H152.413C152.418 172.19 153.382 170.753 154.958 170.753C156.032 170.753 156.678 171.429 156.907 172.364H158.12C157.872 170.763 156.668 169.659 154.958 169.659C152.666 169.659 151.259 171.688 151.259 175.307C151.259 179.07 153.129 180.119 154.799 180.139ZM154.799 179.045C153.521 179.045 152.587 177.957 152.592 176.739C152.597 175.521 153.576 174.432 154.839 174.432C156.087 174.432 157.006 175.456 157.006 176.719C157.006 178.011 156.047 179.045 154.799 179.045Z" fill="#757575"/>
<path d="M184.5 177.5L179.75 172.75L177.25 175.25L173.5 171.5" stroke="#F5450D" stroke-linecap="round" stroke-linejoin="round"/>
<path d="M181.5 177.5H184.5V174.5" stroke="#F5450D" stroke-linecap="round" stroke-linejoin="round"/>
<path d="M219.59 119.59L224.17 115L219.59 110.41L221 109L227 115L221 121L219.59 119.59Z" fill="black"/>
</svg>
